<svg xmlns="http://www.w3.org/2000/svg" viewBox="0 0 400 420" width="400" height="420">
  <defs>
    <filter id="fluffy" x="-20%" y="-20%" width="140%" height="140%">
      <feTurbulence type="fractalNoise" baseFrequency="0.9" numOctaves="4" result="noise"/>
      <feColorMatrix type="matrix" values="1 0 0 0 0  0 1 0 0 0  0 0 1 0 0  0 0 0 0.15 0" in="noise" result="softNoise"/>
      <feBlend mode="multiply" in="softNoise" in2="SourceGraphic" result="blended"/>
    </filter>
    <filter id="softShadow" x="-30%" y="-30%" width="160%" height="160%">
      <feDropShadow dx="0" dy="6" stdDeviation="8" flood-color="#c44a2e" flood-opacity="0.25"/>
    </filter>
    <radialGradient id="capGrad" cx="45%" cy="35%" r="65%">
      <stop offset="0%" stop-color="#ff7a6b"/>
      <stop offset="40%" stop-color="#f25c4d"/>
      <stop offset="80%" stop-color="#d94435"/>
      <stop offset="100%" stop-color="#b83225"/>
    </radialGradient>
    <linearGradient id="rimGrad" x1="0%" y1="0%" x2="0%" y2="100%">
      <stop offset="0%" stop-color="#fdf3d9"/>
      <stop offset="100%" stop-color="#f0dcb0"/>
    </linearGradient>
    <radialGradient id="faceGrad" cx="50%" cy="45%" r="55%">
      <stop offset="0%" stop-color="#fff8f0"/>
      <stop offset="60%" stop-color="#fce8d5"/>
      <stop offset="100%" stop-color="#f5d9c0"/>
    </radialGradient>
    <radialGradient id="blushGrad" cx="50%" cy="50%" r="50%">
      <stop offset="0%" stop-color="#ff9999" stop-opacity="0.6"/>
      <stop offset="100%" stop-color="#ff9999" stop-opacity="0"/>
    </radialGradient>
  </defs>
  <ellipse cx="200" cy="385" rx="90" ry="18" fill="#c4a882" opacity="0.3"/>
  <ellipse cx="200" cy="382" rx="65" ry="12" fill="#a88b6a" opacity="0.2"/>
  <ellipse cx="200" cy="310" rx="85" ry="75" fill="url(#faceGrad)" filter="url(#softShadow)"/>
  <ellipse cx="125" cy="295" rx="22" ry="16" fill="#fce8d5" transform="rotate(-20 125 295)"/>
  <ellipse cx="125" cy="295" rx="22" ry="16" fill="url(#fluffy)" opacity="0.3" transform="rotate(-20 125 295)"/>
  <ellipse cx="275" cy="295" rx="22" ry="16" fill="#fce8d5" transform="rotate(20 275 295)"/>
  <ellipse cx="275" cy="295" rx="22" ry="16" fill="url(#fluffy)" opacity="0.3" transform="rotate(20 275 295)"/>
  <path d="M 200 60 C 110 60, 55 150, 55 220 C 55 260, 85 275, 200 275 C 315 275, 345 260, 345 220 C 345 150, 290 60, 200 60 Z" fill="url(#capGrad)" filter="url(#softShadow)"/>
  <path d="M 200 60 C 110 60, 55 150, 55 220 C 55 260, 85 275, 200 275 C 315 275, 345 260, 345 220 C 345 150, 290 60, 200 60 Z" fill="url(#capGrad)" filter="url(#fluffy)" opacity="0.35"/>
  <path d="M 55 220 Q 72 240, 90 225 Q 107 245, 125 228 Q 142 248, 160 230 Q 177 250, 195 232 Q 212 252, 230 232 Q 247 250, 265 230 Q 282 248, 300 228 Q 317 245, 335 225 Q 345 235, 345 220 C 345 260, 315 275, 200 275 C 85 275, 55 260, 55 220 Z" fill="url(#rimGrad)"/>
  <path d="M 65 230 Q 80 248, 97 233 Q 115 253, 132 235 Q 150 255, 167 237 Q 185 257, 202 238 Q 220 258, 237 238 Q 255 256, 272 236 Q 290 253, 307 233 Q 325 248, 335 230 Q 315 265, 200 265 Q 85 265, 65 230 Z" fill="#fdf3d9" opacity="0.6"/>
  <ellipse cx="200" cy="255" rx="70" ry="55" fill="url(#faceGrad)"/>
  <ellipse cx="200" cy="255" rx="70" ry="55" fill="url(#fluffy)" opacity="0.15"/>
  <circle cx="172" cy="248" r="7" fill="#2d2d2d"/>
  <circle cx="174" cy="246" r="2.5" fill="#fff" opacity="0.85"/>
  <circle cx="228" cy="248" r="7" fill="#2d2d2d"/>
  <circle cx="230" cy="246" r="2.5" fill="#fff" opacity="0.85"/>
  <ellipse cx="155" cy="265" rx="18" ry="12" fill="url(#blushGrad)"/>
  <ellipse cx="245" cy="265" rx="18" ry="12" fill="url(#blushGrad)"/>
  <path d="M 192 262 Q 200 275, 208 262" fill="none" stroke="#d4776b" stroke-width="2.5" stroke-linecap="round"/>
  <path d="M 192 262 Q 200 270, 208 262 Z" fill="#e8887a" opacity="0.6"/>
  <ellipse cx="140" cy="140" rx="14" ry="10" fill="#fff" opacity="0.9" transform="rotate(-15 140 140)"/>
  <ellipse cx="260" cy="125" rx="11" ry="8" fill="#fff" opacity="0.85" transform="rotate(10 260 125)"/>
  <ellipse cx="200" cy="105" rx="16" ry="11" fill="#fff" opacity="0.9"/>
  <ellipse cx="105" cy="190" rx="9" ry="7" fill="#fff" opacity="0.8" transform="rotate(-25 105 190)"/>
  <ellipse cx="295" cy="185" rx="10" ry="7" fill="#fff" opacity="0.8" transform="rotate(20 295 185)"/>
  <ellipse cx="175" cy="175" rx="7" ry="5" fill="#fff" opacity="0.75"/>
  <ellipse cx="235" cy="195" rx="8" ry="6" fill="#fff" opacity="0.75"/>
  <ellipse cx="320" cy="235" rx="6" ry="5" fill="#fff" opacity="0.6" transform="rotate(15 320 235)"/>
  <ellipse cx="80" cy="225" rx="5" ry="4" fill="#fff" opacity="0.55" transform="rotate(-20 80 225)"/>
  <ellipse cx="170" cy="95" rx="35" ry="20" fill="#fff" opacity="0.12" transform="rotate(-10 170 95)"/>
</svg>