<svg xmlns="http://www.w3.org/2000/svg" viewBox="0 0 400 420" width="400" height="420">
  <defs>
    <filter id="fluffy" x="-20%" y="-20%" width="140%" height="140%">
      <feTurbulence type="fractalNoise" baseFrequency="0.9" numOctaves="4" result="noise"/>
      <feColorMatrix type="matrix" values="1 0 0 0 0  0 1 0 0 0  0 0 1 0 0  0 0 0 0.15 0" in="noise" result="softNoise"/>
      <feBlend mode="multiply" in="softNoise" in2="SourceGraphic" result="blended"/>
    </filter>
    <filter id="softShadow" x="-30%" y="-30%" width="160%" height="160%">
      <feDropShadow dx="0" dy="6" stdDeviation="8" flood-color="#c44a2e" flood-opacity="0.25"/>
    </filter>
    <radialGradient id="capGrad" cx="45%" cy="35%" r="65%">
      <stop offset="0%" stop-color="#ff7a6b"/>
      <stop offset="40%" stop-color="#f25c4d"/>
      <stop offset="80%" stop-color="#d94435"/>
      <stop offset="100%" stop-color="#b83225"/>
    </radialGradient>
    <linearGradient id="rimGrad" x1="0%" y1="0%" x2="0%" y2="100%">
      <stop offset="0%" stop-color="#fdf3d9"/>
      <stop offset="100%" stop-color="#f0dcb0"/>
    </linearGradient>
    <radialGradient id="faceGrad" cx="50%" cy="45%" r="55%">
      <stop offset="0%" stop-color="#fff8f0"/>
      <stop offset="60%" stop-color="#fce8d5"/>
      <stop offset="100%" stop-color="#f5d9c0"/>
    </radialGradient>
    <radialGradient id="blushGrad" cx="50%" cy="50%" r="50%">
      <stop offset="0%" stop-color="#ff9999" stop-opacity="0.6"/>
      <stop offset="100%" stop-color="#ff9999" stop-opacity="0"/>
    </radialGradient>
  </defs>

  <!-- ground shadow -->
  <ellipse cx="200" cy="400" rx="90" ry="18" fill="#c4a882" opacity="0.3"/>
  <ellipse cx="200" cy="397" rx="65" ry="12" fill="#a88b6a" opacity="0.2"/>

  <!-- body -->
  <ellipse cx="200" cy="330" rx="85" ry="75" fill="url(#faceGrad)" filter="url(#softShadow)"/>

  <!-- left arm -->
  <ellipse cx="125" cy="315" rx="22" ry="16" fill="#fce8d5" transform="rotate(-20 125 315)"/>
  <ellipse cx="125" cy="315" rx="22" ry="16" fill="url(#fluffy)" opacity="0.3" transform="rotate(-20 125 315)"/>

  <!-- right arm -->
  <ellipse cx="275" cy="315" rx="22" ry="16" fill="#fce8d5" transform="rotate(20 275 315)"/>
  <ellipse cx="275" cy="315" rx="22" ry="16" fill="url(#fluffy)" opacity="0.3" transform="rotate(20 275 315)"/>

  <!-- cap main: full red umbrella behind face -->
  <path d="M 200 60
           C 110 60, 55 150, 55 220
           C 55 242, 85 248, 200 248
           C 315 248, 345 242, 345 220
           C 345 150, 290 60, 200 60 Z"
        fill="url(#capGrad)" filter="url(#softShadow)"/>

  <!-- cap noise overlay -->
  <path d="M 200 60
           C 110 60, 55 150, 55 220
           C 55 242, 85 248, 200 248
           C 315 248, 345 242, 345 220
           C 345 150, 290 60, 200 60 Z"
        fill="url(#capGrad)" filter="url(#fluffy)" opacity="0.35"/>

  <!-- spots, all above rim area -->
  <ellipse cx="140" cy="140" rx="14" ry="10" fill="#fff" opacity="0.9" transform="rotate(-15 140 140)"/>
  <ellipse cx="260" cy="125" rx="11" ry="8" fill="#fff" opacity="0.85" transform="rotate(10 260 125)"/>
  <ellipse cx="200" cy="105" rx="16" ry="11" fill="#fff" opacity="0.9"/>
  <ellipse cx="105" cy="200" rx="9" ry="7" fill="#fff" opacity="0.8" transform="rotate(-25 105 200)"/>
  <ellipse cx="295" cy="195" rx="10" ry="7" fill="#fff" opacity="0.8" transform="rotate(20 295 195)"/>
  <ellipse cx="175" cy="185" rx="7" ry="5" fill="#fff" opacity="0.75"/>
  <ellipse cx="235" cy="205" rx="8" ry="6" fill="#fff" opacity="0.75"/>
  <ellipse cx="320" cy="215" rx="6" ry="5" fill="#fff" opacity="0.6" transform="rotate(15 320 215)"/>
  <ellipse cx="80" cy="210" rx="5" ry="4" fill="#fff" opacity="0.55" transform="rotate(-20 80 210)"/>

  <!-- cap highlight -->
  <ellipse cx="170" cy="100" rx="35" ry="20" fill="#fff" opacity="0.12" transform="rotate(-10 170 100)"/>

  <!-- face: sits inside cap, sides reveal red cap behind -->
  <ellipse cx="200" cy="262" rx="74" ry="52" fill="url(#faceGrad)"/>
  <ellipse cx="200" cy="262" rx="74" ry="52" fill="url(#fluffy)" opacity="0.15"/>

  <!-- eyes -->
  <circle cx="172" cy="252" r="7" fill="#2d2d2d"/>
  <circle cx="174" cy="250" r="2.5" fill="#fff" opacity="0.85"/>
  <circle cx="228" cy="252" r="7" fill="#2d2d2d"/>
  <circle cx="230" cy="250" r="2.5" fill="#fff" opacity="0.85"/>

  <!-- blush -->
  <ellipse cx="155" cy="266" rx="18" ry="12" fill="url(#blushGrad)"/>
  <ellipse cx="245" cy="266" rx="18" ry="12" fill="url(#blushGrad)"/>

  <!-- mouth -->
  <path d="M 192 272 Q 200 284, 208 272" fill="none" stroke="#d4776b" stroke-width="2.5" stroke-linecap="round"/>
  <path d="M 192 272 Q 200 280, 208 272 Z" fill="#e8887a" opacity="0.6"/>

  <!-- cap rim: wide fluffy edge pressing on forehead, bottom just above eyes -->
  <path d="M 55 220
           Q 72 235, 90 225 Q 107 240, 125 230 Q 142 243, 160 232 Q 177 245, 195 235 Q 212 247, 230 235 Q 247 247, 265 232 Q 282 243, 300 230 Q 317 240, 335 225 Q 345 235, 345 220
           C 345 240, 315 248, 200 248
           C 85 248, 55 240, 55 220 Z"
        fill="url(#rimGrad)"/>

  <!-- cap rim inner layer -->
  <path d="M 65 228
           Q 80 243, 97 232 Q 115 248, 132 237 Q 150 250, 167 238 Q 185 251, 202 240 Q 220 252, 237 240 Q 255 251, 272 238 Q 290 250, 307 237 Q 325 248, 335 232
           Q 315 245, 200 245 Q 85 245, 65 228 Z"
        fill="#fdf3d9" opacity="0.6"/>
</svg>